<svg width="130" height="50" viewBox="0 0 130 50" fill="none" xmlns="http://www.w3.org/2000/svg">
<path d="M33 4C33 6.20914 31.2091 8 29 8C26.7909 8 25 6.20914 25 4C25 1.79086 26.7909 0 29 0C30.5681 0 31.9255 0.902337 32.5812 2.2161C32.8492 2.75316 33 3.35897 33 4Z" />
<path d="M105 4C105 6.20914 103.209 8 101 8C98.7909 8 97 6.20914 97 4C97 3.35898 97.1508 2.75317 97.4188 2.21612C98.0745 0.902368 99.4319 0 101 0C103.209 0 105 1.79086 105 4Z" />
<path fill-rule="evenodd" clip-rule="evenodd" d="M29 0H0V50H130V0H101C99.4319 0 98.0745 0.902368 97.4188 2.21612C92.2041 14.9946 79.6537 24 65 24C50.3463 24 37.7959 14.9946 32.5812 2.2161C31.9255 0.902337 30.5681 0 29 0Z"/>
</svg>
